<?xml version="1.0" standalone="no"?>
<!DOCTYPE svg PUBLIC "-//W3C//DTD SVG 20010904//EN"
 "http://www.w3.org/TR/2001/REC-SVG-20010904/DTD/svg10.dtd">
<svg version="1.0" xmlns="http://www.w3.org/2000/svg"
 width="1024.000000pt" height="1024.000000pt" viewBox="0 0 1024.000000 1024.000000"
 preserveAspectRatio="xMidYMid meet">

<g transform="translate(0.000000,1024.000000) scale(0.100000,-0.100000)"
fill="#000000" stroke="none">
<path d="M8707 8800 c3 -11 7 -20 9 -20 2 0 4 9 4 20 0 11 -4 20 -9 20 -5 0
-7 -9 -4 -20z"/>
<path d="M8692 8743 c-5 -16 -40 -59 -78 -97 -38 -38 -55 -60 -38 -48 44 30
127 126 131 151 4 29 -3 26 -15 -6z"/>
<path d="M8460 8536 c-112 -75 -582 -316 -615 -316 -7 0 -24 -9 -38 -20 -37
-30 -121 -63 -125 -51 -2 6 -8 11 -14 11 -6 0 -5 -7 3 -16 12 -15 11 -16 -10
-9 -15 4 -21 3 -17 -3 7 -11 -21 -25 -35 -16 -5 3 -9 1 -9 -5 0 -14 -55 -42
-65 -33 -5 4 -5 2 -2 -4 3 -6 -5 -53 -19 -105 -13 -52 -25 -100 -26 -106 -1
-13 -12 -17 -33 -14 -5 1 -2 -5 8 -13 12 -9 14 -16 8 -21 -6 -3 -11 -2 -11 3
0 6 -6 12 -14 15 -10 4 -14 0 -11 -13 4 -20 -14 -18 -45 4 -13 10 -13 9 -1 -6
9 -13 10 -18 2 -18 -7 0 -9 -5 -5 -12 5 -7 2 -9 -7 -6 -8 3 -23 0 -34 -8 -14
-11 -21 -11 -26 -2 -6 9 -11 9 -23 -1 -9 -7 -14 -17 -11 -21 2 -4 -8 -5 -23
-3 -23 3 -24 2 -7 -6 18 -8 18 -10 2 -10 -10 -1 -22 9 -27 22 l-9 22 0 -22
c-1 -22 -21 -44 -21 -22 0 9 -3 9 -14 0 -11 -9 -15 -9 -19 1 -3 8 -6 6 -6 -5
-1 -14 4 -17 19 -12 13 4 20 2 20 -7 0 -9 -14 -13 -45 -12 -41 1 -50 -5 -46
-28 0 -4 -5 -5 -13 -2 -14 5 -30 -21 -21 -35 2 -4 -2 -8 -10 -8 -10 0 -11 5
-4 19 11 21 -1 24 -20 6 -11 -10 -12 -10 -7 -1 5 9 2 11 -8 7 -8 -3 -16 -15
-18 -27 -2 -16 -8 -21 -23 -18 -11 3 -33 5 -48 5 -24 1 -29 7 -42 50 -8 27
-15 59 -15 71 0 17 -6 21 -34 21 -22 0 -32 -4 -28 -10 3 -6 -2 -5 -11 3 -14
11 -18 11 -23 -2 -5 -15 -50 -30 -91 -31 -12 0 -20 -3 -17 -7 6 -11 -34 -22
-47 -13 -8 5 -9 3 -4 -6 6 -10 4 -12 -8 -7 -9 3 -19 2 -22 -2 -8 -14 -144 -53
-157 -45 -6 4 -8 3 -5 -3 6 -10 -203 -80 -318 -107 -162 -37 -212 -48 -257
-53 -27 -3 -44 -9 -38 -13 7 -4 28 -4 48 1 21 4 78 15 127 24 50 10 97 19 105
21 66 15 141 37 170 49 19 7 107 36 195 64 429 134 411 129 401 113 -2 -4 6
-39 18 -77 13 -39 31 -105 41 -148 13 -54 21 -74 28 -65 6 9 7 7 2 -7 -12 -32
-7 -69 36 -244 23 -91 43 -179 45 -195 2 -16 5 -30 7 -32 2 -3 37 9 78 25 41
15 95 36 121 45 43 16 54 27 64 71 12 50 86 332 99 375 22 78 22 77 41 155 9
39 19 77 22 85 6 18 9 28 15 60 3 14 20 83 38 154 l32 128 86 40 c98 45 287
137 441 213 99 49 135 68 276 145 69 38 184 111 184 116 0 9 -19 0 -80 -40z
m-1233 -828 c-3 -8 -6 -5 -6 6 -1 11 2 17 5 13 3 -3 4 -12 1 -19z m-272 -107
c-3 -2 1 -11 8 -19 10 -13 9 -15 -6 -9 -13 5 -16 3 -10 -6 13 -20 12 -35 -3
-41 -9 -4 -14 2 -14 17 0 12 -3 32 -6 44 -5 18 -2 22 15 20 11 0 18 -3 16 -6z
m2 -118 c1 -22 -1 -24 -8 -10 -6 9 -7 22 -4 27 9 14 10 13 12 -17z m40 -235
c-3 -8 -6 -5 -6 6 -1 11 2 17 5 13 3 -3 4 -12 1 -19z"/>
<path d="M7440 7889 c0 -5 5 -7 10 -4 6 3 10 8 10 11 0 2 -4 4 -10 4 -5 0 -10
-5 -10 -11z"/>
<path d="M7265 7770 c-3 -5 -1 -10 4 -10 6 0 11 5 11 10 0 6 -2 10 -4 10 -3 0
-8 -4 -11 -10z"/>
<path d="M7070 7683 c-13 -15 -12 -16 4 -10 10 4 20 7 22 7 2 0 4 5 4 10 0 15
-13 12 -30 -7z"/>
<path d="M6928 7633 c7 -3 16 -2 19 1 4 3 -2 6 -13 5 -11 0 -14 -3 -6 -6z"/>
<path d="M5338 7463 c7 -3 16 -2 19 1 4 3 -2 6 -13 5 -11 0 -14 -3 -6 -6z"/>
<path d="M5470 7450 c68 -8 246 -13 239 -6 -2 2 -71 6 -154 8 -91 3 -124 2
-85 -2z"/>
<path d="M5725 7451 c-3 -6 10 -7 32 -4 50 8 55 13 10 13 -20 0 -38 -4 -42 -9z"/>
<path d="M4544 7128 l-19 -23 25 20 c14 11 27 21 29 22 2 2 0 3 -6 3 -5 0 -18
-10 -29 -22z"/>
<path d="M4505 7100 c-3 -5 -1 -10 4 -10 6 0 11 5 11 10 0 6 -2 10 -4 10 -3 0
-8 -4 -11 -10z"/>
<path d="M4290 6944 c-66 -49 -124 -98 -80 -68 47 33 160 117 160 120 0 7 -4
4 -80 -52z"/>
<path d="M6328 6883 c7 -3 16 -2 19 1 4 3 -2 6 -13 5 -11 0 -14 -3 -6 -6z"/>
<path d="M6388 6883 c7 -3 16 -2 19 1 4 3 -2 6 -13 5 -11 0 -14 -3 -6 -6z"/>
<path d="M6170 6870 c-9 -6 -10 -10 -3 -10 6 0 15 5 18 10 8 12 4 12 -15 0z"/>
<path d="M6438 6873 c12 -2 30 -2 40 0 9 3 -1 5 -23 4 -22 0 -30 -2 -17 -4z"/>
<path d="M6505 6870 c3 -5 27 -11 54 -15 27 -4 52 -12 54 -19 5 -13 -29 -16
-48 -4 -6 3 -11 -10 -12 -33 -2 -22 2 -39 8 -39 6 0 8 9 4 20 -3 11 -3 20 2
21 4 0 17 2 29 3 14 2 20 -4 22 -18 0 -12 -2 -16 -6 -9 -5 8 -11 7 -20 -3 -7
-8 -8 -14 -3 -14 6 0 8 -7 5 -15 -4 -8 -15 -15 -26 -15 -10 0 -16 5 -13 10 8
13 -8 13 -22 -1 -8 -8 -13 -7 -18 2 -6 8 -4 10 6 4 8 -5 5 1 -5 13 -21 24 -32
29 -19 10 4 -7 9 -21 10 -32 3 -16 1 -17 -14 -5 -14 11 -15 12 -9 0 7 -10 4
-12 -12 -7 -12 4 -23 2 -28 -5 -5 -9 -2 -10 9 -6 8 3 20 0 26 -7 9 -11 5 -13
-19 -10 -21 3 -29 0 -24 -7 4 -8 0 -8 -14 0 -33 17 -37 13 -11 -10 l24 -22
-22 6 c-17 4 -23 1 -24 -11 -1 -10 -5 -3 -9 13 -6 24 -8 26 -9 8 -1 -19 -7
-23 -31 -23 -16 0 -30 -5 -30 -11 0 -6 8 -8 18 -5 15 5 15 5 -1 -8 -13 -10
-17 -21 -13 -34 4 -11 2 -23 -4 -27 -6 -4 -10 15 -10 56 0 34 -3 60 -6 56 -6
-5 -5 -199 1 -327 2 -30 4 -89 4 -130 1 -41 7 -358 13 -705 6 -346 7 -666 3
-709 -8 -94 -32 -128 -87 -125 -18 1 -55 -1 -83 -5 -45 -6 -88 4 -74 18 3 3
33 10 67 14 69 10 86 24 97 82 4 19 5 449 4 954 l-4 919 22 8 c11 4 24 12 28
18 3 6 -10 4 -29 -6 -33 -15 -36 -20 -37 -62 -1 -25 0 -57 1 -71 2 -24 1 -25
-14 -5 -10 13 -15 15 -16 6 0 -11 -3 -11 -17 0 -16 13 -17 12 -4 -3 7 -10 17
-15 22 -13 4 3 7 -3 6 -14 0 -11 -6 -17 -11 -13 -23 14 -43 9 -38 -11 4 -16 0
-18 -24 -15 -21 2 -32 -3 -39 -16 -6 -11 -24 -20 -44 -23 -19 -2 -37 -6 -40
-8 -9 -9 -10 -35 -1 -35 5 0 8 -8 7 -19 -1 -12 -7 -17 -19 -13 -10 2 -18 8
-18 13 0 18 -30 8 -56 -18 -21 -23 -24 -24 -15 -6 7 13 7 24 2 28 -5 3 -12 -4
-16 -15 -3 -11 -13 -20 -21 -20 -10 0 -12 5 -8 13 6 9 4 9 -8 -1 -10 -8 -14
-21 -10 -34 5 -19 4 -20 -10 -7 -9 7 -13 18 -10 23 3 5 -7 6 -22 2 -17 -4 -26
-2 -26 5 0 7 -3 10 -6 6 -7 -6 12 -43 20 -39 18 7 32 0 32 -18 0 -10 -2 -17
-5 -15 -2 3 -10 0 -18 -6 -8 -8 -13 -8 -13 -1 0 6 6 13 13 15 7 4 6 6 -4 6
-24 1 -31 -27 -11 -38 9 -6 12 -11 6 -11 -15 0 -37 27 -31 37 3 5 -3 9 -13 9
-18 0 -18 -2 -6 -21 10 -16 11 -22 2 -22 -6 0 -24 -3 -39 -7 -16 -4 -27 -2
-27 4 0 7 -6 8 -19 1 -10 -6 -21 -8 -24 -5 -3 3 -4 -2 -3 -11 1 -9 9 -21 17
-27 11 -8 10 -9 -5 -4 -13 4 -17 2 -13 -8 8 -21 -13 -37 -35 -25 -14 8 -18 6
-19 -8 0 -16 -1 -16 -9 2 l-9 20 0 -20 c-1 -17 -3 -17 -11 -5 -9 14 -15 7 -11
-14 1 -5 -10 -6 -24 -4 -20 4 -23 3 -14 -8 8 -10 6 -12 -10 -9 -11 2 -23 -1
-26 -6 -4 -5 -11 -6 -17 -3 -7 4 -8 2 -4 -5 6 -9 11 -9 22 0 10 8 14 8 14 1 0
-6 -9 -16 -19 -22 -25 -13 -34 -13 -26 0 3 6 1 10 -4 10 -6 0 -11 -5 -11 -10
0 -7 -7 -7 -21 1 -17 9 -20 8 -13 -3 23 -36 3 -78 -21 -44 -11 15 -13 15 -19
1 -3 -9 -2 -14 3 -11 5 3 11 -5 13 -19 4 -17 1 -25 -8 -25 -8 0 -14 -5 -14
-11 0 -5 -4 -8 -9 -4 -5 3 -13 0 -17 -6 -5 -9 -11 -7 -21 6 -11 16 -13 16 -13
3 0 -11 -8 -15 -26 -13 -18 2 -22 -1 -15 -8 17 -17 13 -26 -9 -22 -13 2 -20
-2 -20 -11 0 -8 5 -12 10 -9 6 3 10 -2 10 -12 -1 -16 -3 -15 -20 6 l-20 23 5
-28 c4 -24 -1 -33 -28 -54 -17 -13 -26 -17 -18 -7 9 12 10 17 2 17 -7 0 -10 4
-6 10 3 5 12 7 19 4 8 -3 17 -1 20 4 3 5 -6 8 -21 6 -15 -1 -30 -9 -34 -17 -5
-8 -20 -13 -33 -12 -14 2 -27 -3 -30 -11 -3 -9 -1 -12 4 -9 6 3 10 1 10 -4 0
-6 -7 -11 -15 -11 -8 0 -15 -9 -15 -21 0 -12 -4 -17 -11 -14 -6 4 -8 14 -5 22
3 8 1 11 -4 8 -15 -9 -8 -38 10 -47 11 -6 10 -7 -5 -5 -11 1 -20 8 -20 15 0 6
-4 11 -10 10 -5 -2 -10 -10 -10 -18 0 -8 -9 -14 -19 -13 -13 1 -16 -4 -13 -18
4 -14 0 -19 -17 -19 -23 0 -59 -34 -48 -46 4 -3 -2 -2 -14 4 -15 8 -24 8 -34
-1 -10 -10 -10 -8 -1 10 6 12 21 24 33 26 l23 4 -22 2 c-26 1 -59 -41 -47 -60
5 -9 2 -10 -10 -6 -23 9 -43 -3 -25 -14 11 -7 11 -9 1 -9 -7 0 -10 -4 -7 -10
3 -6 -1 -7 -10 -3 -10 3 -12 8 -7 12 7 4 6 12 -3 24 -11 15 -14 16 -25 2 -11
-13 -10 -14 4 -9 9 3 16 1 16 -5 0 -10 -14 -15 -33 -12 -5 1 -6 -3 -2 -9 3 -6
11 -8 16 -5 5 4 9 -1 9 -10 0 -8 -7 -18 -15 -21 -8 -4 -13 -9 -10 -13 2 -4 -6
-7 -18 -6 -29 2 -28 18 0 20 13 1 26 5 29 8 4 4 -8 5 -26 2 -41 -5 -44 -9 -30
-35 7 -13 8 -20 2 -16 -6 4 -15 -2 -21 -11 -9 -16 -10 -15 -8 7 1 16 -3 24
-10 22 -7 -1 -13 2 -13 8 0 5 -5 10 -11 10 -8 0 -8 -5 1 -15 7 -8 15 -13 19
-11 4 3 7 -13 6 -35 0 -21 -6 -41 -12 -43 -7 -3 -12 -2 -10 2 1 4 -2 8 -7 9
-5 1 -13 7 -17 15 -7 10 -9 10 -9 0 0 -7 -4 -11 -9 -7 -10 5 -7 -27 3 -43 2
-4 -4 -8 -14 -9 -11 -1 -23 3 -26 9 -5 8 -1 9 12 4 14 -5 16 -4 7 5 -6 6 -17
8 -25 3 -7 -5 -19 -9 -27 -9 -8 0 -16 -7 -18 -15 -4 -12 -3 -12 5 -1 7 9 12
10 16 2 9 -14 -10 -21 -56 -24 -26 -1 -34 -6 -31 -18 3 -9 -5 -20 -19 -26 -13
-7 -17 -12 -9 -12 8 -1 4 -8 -10 -20 -16 -13 -26 -16 -31 -8 -3 6 -15 11 -26
12 -17 1 -19 -2 -12 -19 7 -19 4 -21 -26 -20 -24 1 -34 -2 -34 -13 0 -8 -4
-12 -9 -9 -5 4 -14 -6 -20 -21 -11 -27 -11 -28 -8 -3 3 19 -1 26 -14 26 -11 0
-15 -5 -10 -11 4 -5 7 -17 6 -25 -5 -44 -6 -45 -21 -20 -8 14 -13 17 -10 8 3
-12 0 -18 -10 -18 -8 0 -13 4 -9 9 3 5 0 13 -6 17 -8 5 -9 3 -4 -6 6 -10 4
-12 -8 -7 -11 4 -14 2 -11 -8 4 -9 -1 -13 -13 -11 -17 3 -25 0 -73 -24 -26
-13 -33 -13 -25 3 4 6 -1 3 -9 -7 -14 -18 -21 -15 -17 7 0 4 -3 7 -9 7 -5 0
-10 -6 -10 -13 0 -7 -9 -20 -20 -30 -22 -18 -35 -23 -26 -8 9 15 -81 -7 -137
-33 -305 -144 -338 -158 -364 -160 -13 0 -25 -7 -28 -13 -2 -7 -11 -13 -20
-13 -8 0 -15 -4 -15 -10 0 -5 -7 -10 -15 -10 -8 0 -15 -5 -15 -10 0 -6 26 3
58 19 31 16 86 41 122 56 36 15 115 51 175 80 176 84 155 81 407 67 123 -7
275 -17 338 -22 63 -5 165 -11 225 -13 125 -4 186 -22 277 -80 87 -56 187
-173 203 -239 6 -23 13 -26 67 -32 34 -3 88 -6 122 -6 214 -1 336 -67 443
-240 60 -98 126 -295 91 -274 -7 4 -41 10 -77 13 l-65 6 -33 64 c-74 143 -141
194 -298 226 -26 5 -249 7 -311 2 -17 -2 -34 17 -76 80 -67 100 -163 210 -202
230 -16 9 -52 17 -80 19 -111 9 -380 23 -556 30 l-185 6 6 -253 c4 -140 10
-273 14 -297 9 -49 0 -49 120 -2 44 18 113 41 154 52 l74 20 104 -21 c116 -23
155 -39 198 -79 43 -40 124 -129 167 -183 21 -26 55 -66 77 -90 40 -45 107
-147 100 -153 -2 -2 -54 -6 -114 -8 l-111 -4 -23 36 c-79 125 -256 239 -370
240 -14 0 -88 -23 -165 -51 -164 -60 -367 -132 -446 -159 -85 -28 -456 -169
-515 -195 -62 -28 -202 -82 -245 -95 -25 -7 -50 -17 -55 -21 -6 -4 -51 -20
-100 -34 -115 -34 -103 -31 -153 -40 -45 -8 -84 -39 -88 -71 -9 -60 -34 -280
-39 -346 -7 -85 -5 -89 50 -68 14 5 39 12 54 15 35 6 427 135 529 175 43 16
127 47 187 69 61 22 122 44 135 50 14 5 106 39 205 76 99 36 212 78 250 92 39
14 90 33 115 43 62 24 274 91 335 106 100 24 124 25 333 18 123 -3 220 -10
215 -15 -4 -4 -44 -21 -88 -37 -44 -17 -127 -49 -185 -72 -58 -22 -112 -43
-120 -45 -8 -2 -91 -31 -185 -65 -93 -34 -174 -63 -180 -64 -5 -2 -21 -8 -35
-13 -14 -6 -77 -29 -140 -51 -268 -94 -429 -152 -495 -177 -74 -28 -289 -103
-315 -110 -8 -2 -98 -31 -200 -65 -162 -54 -295 -92 -356 -104 -11 -2 -39 -9
-64 -16 -83 -23 -104 -25 -280 -25 -148 0 -184 3 -230 19 -30 11 -64 21 -75
23 -25 4 -227 107 -256 130 -66 52 -136 124 -170 175 -22 31 -39 60 -39 64 0
4 -6 15 -14 23 -15 18 -49 129 -65 216 -10 55 -8 184 4 245 3 14 9 48 15 75 6
28 12 61 15 75 3 14 9 36 14 50 50 132 66 173 90 225 16 33 32 71 36 85 10 32
238 437 267 475 5 6 40 60 80 120 39 61 74 112 77 115 21 19 82 102 78 106 -3
3 -13 -6 -22 -20 -10 -14 -22 -23 -28 -19 -5 3 -7 2 -4 -4 3 -5 -6 -25 -22
-44 -15 -19 -51 -71 -81 -116 -38 -58 -57 -80 -69 -76 -14 4 -14 3 -1 -6 11
-8 12 -11 2 -11 -7 0 -11 -4 -8 -8 7 -12 -80 -143 -89 -134 -5 4 -5 2 -1 -5 6
-11 -15 -56 -34 -73 -3 -3 -14 -24 -24 -47 -10 -23 -23 -40 -27 -37 -5 3 -6
-2 -3 -11 4 -10 1 -14 -7 -12 -8 2 -10 2 -6 -1 4 -2 0 -11 -10 -19 -11 -9 -12
-12 -3 -8 12 5 12 4 -1 -7 -9 -7 -17 -16 -17 -21 -6 -29 -33 -77 -42 -72 -5 3
-7 0 -4 -9 8 -20 -32 -106 -57 -124 -15 -10 -19 -21 -15 -38 4 -15 2 -24 -5
-24 -7 0 -9 -3 -6 -6 4 -4 0 -19 -7 -33 -8 -14 -20 -45 -27 -69 -8 -29 -15
-38 -21 -30 -8 13 -9 8 -13 -57 -3 -40 -12 -82 -21 -97 -4 -7 -9 -29 -10 -49
-1 -20 -5 -47 -9 -59 -9 -28 -8 -193 1 -240 3 -19 6 -43 6 -52 0 -10 3 -18 8
-18 5 0 7 -15 5 -32 -3 -24 -2 -29 5 -18 7 11 10 11 10 2 0 -7 9 -32 20 -54
11 -23 20 -47 20 -54 0 -6 7 -17 15 -24 8 -7 14 -20 13 -29 -2 -8 3 -16 10
-16 7 0 22 -16 33 -35 12 -19 30 -41 41 -48 10 -7 15 -18 12 -24 -5 -7 -2 -8
6 -3 7 4 15 3 19 -2 3 -5 29 -28 58 -50 34 -27 48 -44 42 -50 -7 -7 -3 -12 10
-16 12 -3 19 -1 15 4 -8 13 10 11 24 -3 7 -7 12 -9 12 -4 0 4 12 -1 27 -12 16
-11 38 -23 51 -26 12 -4 20 -12 16 -17 -4 -7 -10 -6 -18 0 -6 5 -21 8 -31 6
-11 -2 -22 -4 -25 -4 -2 -1 1 -6 8 -13 7 -7 12 -16 12 -22 0 -7 -4 -6 -10 0
-15 15 -72 5 -66 -11 3 -8 -2 -12 -12 -10 -9 2 -21 4 -25 4 -5 1 -5 5 -2 11 3
6 -4 10 -17 10 -18 0 -20 -2 -8 -10 12 -8 12 -10 -2 -15 -17 -7 -45 -13 -65
-14 -6 -1 -9 -10 -6 -21 4 -16 2 -19 -12 -13 -13 4 -16 3 -11 -5 4 -7 2 -12
-3 -12 -6 0 -11 7 -11 16 0 12 -5 10 -20 -9 -11 -14 -20 -37 -20 -51 0 -26 13
-32 63 -26 16 1 16 -1 6 -18 -7 -11 -20 -18 -28 -15 -9 2 -5 -2 8 -10 l24 -14
-27 -5 c-14 -3 -26 -1 -26 4 0 5 -8 7 -18 4 -19 -6 -102 47 -102 65 0 6 -4 8
-9 5 -19 -12 -161 114 -212 188 -13 20 -28 36 -33 36 -5 0 0 -10 12 -23 12
-13 22 -28 22 -33 0 -19 148 -151 231 -206 120 -79 216 -137 231 -140 7 -2 15
-6 18 -9 7 -8 146 -64 220 -88 82 -26 233 -61 265 -61 14 0 25 -4 25 -10 0
-13 -140 -13 -255 1 -106 12 -375 85 -530 144 -148 56 -270 135 -373 242 -45
48 -82 90 -82 95 0 5 -10 25 -23 46 -76 122 -117 326 -97 477 18 127 19 136
25 155 5 17 10 35 20 85 6 28 52 140 82 198 13 27 22 51 19 54 -3 3 -22 -30
-43 -73 -21 -44 -42 -82 -46 -85 -5 -3 -7 -8 -6 -10 3 -3 -23 -104 -38 -149
-3 -8 -7 -24 -8 -35 -9 -67 -18 -112 -27 -122 -7 -9 -7 -13 2 -13 9 0 10 -4 2
-13 -6 -7 -9 -24 -6 -38 4 -16 3 -20 -3 -11 -6 8 -9 -17 -9 -67 1 -43 4 -77 8
-75 11 7 20 -15 13 -36 -4 -11 -11 -20 -16 -20 -6 0 -8 4 -4 9 3 5 -8 3 -25
-5 -16 -9 -30 -18 -30 -20 0 -3 4 -3 9 0 13 8 41 -4 41 -17 0 -6 -3 -7 -7 -4
-3 4 -13 1 -21 -6 -13 -9 -14 -9 -8 1 4 7 1 12 -9 12 -9 0 -13 -5 -10 -10 3
-5 -2 -11 -12 -11 -10 -1 4 -5 31 -11 61 -11 94 -39 61 -52 -8 -3 -14 -2 -14
2 4 23 -5 29 -40 29 -28 0 -38 -4 -34 -12 2 -7 -1 -16 -7 -20 -6 -4 -8 -15 -5
-26 4 -10 2 -19 -4 -19 -5 0 -8 -8 -6 -19 2 -12 -5 -22 -23 -31 l-27 -12 23
22 c28 26 28 31 0 26 -13 -3 -31 -5 -41 -5 -10 -1 -15 -5 -12 -11 3 -6 -1 -10
-10 -10 -9 0 -14 4 -11 9 3 5 -1 11 -9 15 -8 3 -15 12 -15 20 0 22 -20 70 -26
63 -9 -9 23 -90 62 -158 68 -116 152 -211 235 -264 8 -5 44 -29 80 -52 131
-86 163 -104 176 -99 8 3 12 2 9 -2 -10 -16 305 -149 439 -186 6 -1 19 -5 30
-9 18 -6 35 -9 100 -22 128 -24 187 -40 170 -45 -11 -3 -34 -13 -52 -22 -33
-19 -304 -108 -327 -108 -7 0 -42 -10 -77 -21 -35 -12 -68 -22 -74 -24 -5 -1
-27 -5 -48 -10 -20 -4 -40 -11 -43 -16 -3 -5 1615 -8 3872 -7 3299 3 3878 5
3882 17 3 8 0 11 -6 7 -7 -4 -21 -2 -32 4 -11 6 -53 19 -93 30 -39 10 -124 33
-187 50 -63 17 -126 34 -139 36 -14 3 -28 7 -32 10 -6 3 -182 50 -259 69 -8 2
-27 8 -41 13 -15 6 -30 8 -34 4 -4 -4 -6 -1 -4 5 2 7 27 36 55 65 103 107 228
256 330 393 57 77 108 145 112 150 36 48 169 279 205 355 87 188 112 245 147
330 62 157 86 220 114 315 15 50 34 106 41 125 12 29 25 71 41 135 1 6 12 46
24 90 12 44 23 90 26 102 2 12 9 34 14 48 5 14 7 25 5 25 -2 0 0 12 6 27 l10
26 -138 -8 c-76 -4 -158 -8 -183 -9 -25 -1 -59 -6 -76 -10 l-31 -7 8 52 c5 29
6 56 3 60 -8 14 -4 427 6 544 5 61 16 184 25 275 14 141 14 227 1 300 -5 31
-17 86 -26 125 -63 276 -111 434 -138 458 -31 28 -138 66 -213 76 -41 5 -117
19 -169 30 -52 10 -126 22 -165 26 -38 4 -85 8 -103 10 -30 3 -32 2 -26 -23 3
-15 14 -43 23 -62 15 -33 20 -36 101 -52 83 -17 193 -34 275 -42 88 -9 145
-27 165 -53 28 -36 25 -43 -12 -33 -35 10 -158 32 -298 55 -80 13 -160 21
-275 30 -109 8 -283 26 -345 36 -36 5 -89 12 -118 14 -29 3 -56 7 -60 9 -4 2
-79 7 -166 11 -88 3 -164 9 -168 11 -10 6 -1 -120 13 -182 9 -43 37 -272 44
-359 2 -27 7 -74 10 -102 l6 -53 92 -1 c51 -1 95 -1 99 0 16 2 507 -20 643
-29 144 -10 371 -24 579 -35 109 -6 142 -17 130 -43 -4 -9 -13 -64 -21 -122
-7 -58 -15 -110 -18 -116 -2 -8 -17 -9 -49 -3 -25 4 -93 9 -153 9 -59 1 -155
5 -213 10 -58 5 -242 12 -410 15 -168 4 -341 11 -385 16 -44 5 -92 9 -108 9
l-29 0 7 -52 c4 -29 16 -87 27 -128 11 -41 27 -99 35 -128 11 -41 20 -55 41
-64 17 -7 161 -14 397 -19 365 -7 794 -25 802 -33 2 -2 1 -33 -3 -70 l-7 -66
-32 0 c-30 0 -33 -3 -40 -37 -4 -21 -12 -49 -19 -63 -7 -14 -16 -37 -20 -52
l-6 -28 60 0 c58 0 60 -1 60 -26 0 -34 -21 -107 -33 -115 -5 -4 -52 -9 -105
-13 -54 -4 -131 -11 -172 -16 -41 -5 -106 -12 -145 -15 -38 -3 -117 -10 -175
-16 -58 -6 -134 -12 -170 -15 -36 -2 -112 -10 -170 -18 -58 -8 -148 -18 -200
-21 -52 -4 -97 -8 -101 -10 -3 -3 -44 -7 -90 -10 -46 -4 -131 -13 -188 -21
-58 -8 -117 -14 -132 -14 l-27 0 -7 118 c-8 137 -9 142 -31 269 -44 259 -116
354 -299 393 -47 10 -176 4 -223 -11 -18 -6 -35 -9 -37 -7 -2 2 0 44 5 93 5
50 14 284 19 520 6 237 14 526 17 643 l6 212 49 0 c35 0 49 -4 49 -14 0 -15
31 -11 225 31 194 42 404 38 780 -13 61 -9 130 -17 155 -20 25 -2 54 -6 66 -9
12 -2 54 -9 94 -15 40 -6 83 -13 96 -16 22 -6 24 -4 18 27 -15 83 -71 167
-137 208 -27 17 -135 40 -317 67 -19 3 -69 12 -110 20 -41 7 -139 23 -218 34
-78 11 -162 24 -185 29 -46 11 -162 30 -217 37 -19 2 -46 6 -60 9 -31 7 -52
10 -160 25 -47 7 -104 15 -127 20 -24 4 -40 4 -38 0z m140 -29 c3 -5 1 -12 -4
-15 -5 -3 -11 1 -15 9 -6 16 9 21 19 6z m128 -30 c5 -5 -13 -3 -40 4 -39 10
-50 10 -61 -1 -7 -8 -15 -14 -18 -14 -8 0 -4 9 11 23 11 12 23 13 57 5 24 -5
47 -13 51 -17z m107 -7 c0 -2 -13 -4 -30 -4 -16 0 -30 4 -30 8 0 5 14 7 30 4
17 -2 30 -6 30 -8z m-820 -373 c0 -16 -41 -24 -54 -11 -8 10 -6 11 12 5 13 -4
22 -2 22 4 0 6 5 11 10 11 6 0 10 -4 10 -9z m-97 -65 c4 -10 0 -12 -15 -8 -15
4 -17 7 -6 13 17 11 15 11 21 -5z m354 -33 c-3 -10 -5 -4 -5 12 0 17 2 24 5
18 2 -7 2 -21 0 -30z m-632 -119 c-13 -10 -20 -10 -30 -1 -16 15 0 26 28 19
19 -5 19 -6 2 -18z m-263 -156 c-6 -6 -16 -7 -22 -3 -9 6 -9 9 1 16 17 10 34
0 21 -13z m50 10 c-9 -9 -15 -9 -24 0 -9 9 -7 12 12 12 19 0 21 -3 12 -12z
m-367 -228 c3 -5 2 -10 -4 -10 -5 0 -13 5 -16 10 -3 6 -2 10 4 10 5 0 13 -4
16 -10z m-501 -371 c-3 -5 -10 -7 -15 -3 -5 3 -7 10 -3 15 3 5 10 7 15 3 5 -3
7 -10 3 -15z m-131 -80 c-3 -11 -6 -18 -7 -17 -1 2 -7 10 -13 18 -10 13 -8 16
6 17 14 1 17 -4 14 -18z m-163 -93 c0 -2 -8 -10 -17 -17 -16 -13 -17 -12 -4 4
13 16 21 21 21 13z m-198 -109 c-7 -8 -8 -17 -4 -21 4 -4 -6 -2 -22 5 l-29 13
29 12 c33 14 42 11 26 -9z m58 13 c0 -13 -28 -25 -38 -16 -3 4 0 11 8 16 20
13 30 12 30 0z m-22 -57 c-10 -2 -28 -2 -40 0 -13 2 -5 4 17 4 22 1 32 -1 23
-4z m85 -10 c-7 -2 -19 -2 -25 0 -7 3 -2 5 12 5 14 0 19 -2 13 -5z m84 -9 c-3
-3 -12 -4 -19 -1 -8 3 -5 6 6 6 11 1 17 -2 13 -5z m66 -1 c-7 -2 -21 -2 -30 0
-10 3 -4 5 12 5 17 0 24 -2 18 -5z m-304 -246 c-2 -1 -13 -9 -23 -17 -13 -10
-17 -10 -12 -2 5 8 0 12 -18 12 -23 0 -25 -4 -29 -47 l-3 -48 -2 53 -2 52 47
0 c25 0 44 -1 42 -3z m148 -13 c-3 -3 -12 -4 -19 -1 -8 3 -5 6 6 6 11 1 17 -2
13 -5z m-230 -116 c-3 -8 -6 -5 -6 6 -1 11 2 17 5 13 3 -3 4 -12 1 -19z m2722
-42 c111 -58 149 -313 69 -467 -26 -51 -48 -68 -101 -78 -92 -17 -121 -2 -157
81 -17 39 -21 69 -21 132 2 158 40 268 110 321 40 29 61 31 100 11z m-2722
-263 c-3 -10 -5 -4 -5 12 0 17 2 24 5 18 2 -7 2 -21 0 -30z m-722 -713 c3 -5
1 -10 -4 -10 -6 0 -11 5 -11 10 0 6 2 10 4 10 3 0 8 -4 11 -10z m3395 -15 c0
-3 -12 -52 -26 -108 -14 -56 -27 -112 -30 -124 -2 -12 -9 -34 -14 -48 l-10
-25 -293 0 -294 0 -18 -62 c-10 -35 -26 -92 -36 -127 -11 -35 -19 -67 -19 -72
0 -5 101 -9 229 -9 135 0 241 -4 257 -10 21 -8 29 -8 36 2 13 21 10 4 -18
-100 -14 -53 -28 -110 -31 -126 -3 -16 -9 -40 -14 -53 l-9 -23 -255 0 c-232 0
-255 -2 -255 -17 0 -9 -4 -30 -10 -47 -11 -35 -89 -348 -96 -385 -3 -14 -7
-28 -10 -33 -3 -4 -92 -8 -198 -8 l-194 0 24 93 c50 197 145 583 149 609 3 15
9 38 14 50 5 13 18 64 30 113 12 50 31 126 42 170 11 44 22 87 24 95 6 29 56
225 60 238 3 9 109 12 485 12 264 0 480 -2 480 -5z m610 -10 c0 -16 -15 -80
-38 -165 -9 -30 -17 -59 -18 -65 -1 -5 -7 -30 -14 -55 -14 -53 -15 -53 -24
-105 -5 -22 -16 -69 -27 -105 -22 -79 -96 -364 -114 -440 -7 -30 -16 -67 -20
-82 l-7 -27 273 -1 c150 0 274 -2 276 -3 2 -3 -28 -128 -61 -250 -9 -32 -16
-60 -16 -62 0 -3 -209 -5 -464 -5 l-463 0 28 108 c16 59 31 118 34 132 3 14 9
40 14 58 5 17 8 32 6 32 -2 0 2 18 10 40 8 22 13 41 13 43 -2 2 10 50 38 157
20 80 55 230 61 264 3 16 9 40 14 53 8 22 54 214 65 273 3 14 11 45 19 70 7
25 17 65 20 90 4 25 9 48 12 53 2 4 89 7 194 7 160 0 189 -2 189 -15z m-4280
-85 c-28 -24 -27 -24 -27 -5 0 8 4 12 8 9 4 -2 10 0 14 6 3 5 11 10 17 10 6 0
1 -9 -12 -20z m-57 -17 c-7 -2 -19 -2 -25 0 -7 3 -2 5 12 5 14 0 19 -2 13 -5z
m-63 -21 c0 -4 -12 -8 -27 -9 -24 -1 -25 -1 -8 7 26 11 35 12 35 2z m-116 -47
c-23 -17 -34 -19 -34 -4 0 6 -5 7 -12 2 -20 -12 -37 -12 -44 -1 -4 6 2 8 12 6
11 -2 35 4 54 13 38 19 54 7 24 -16z m61 14 c2 -9 -4 -16 -11 -16 -17 0 -19
17 -1 18 6 0 3 5 -8 10 -19 8 -19 9 -1 6 11 -1 20 -9 21 -18z m-168 -44 c0 -8
-5 -11 -10 -8 -5 3 -7 0 -5 -8 3 -8 -2 -20 -11 -27 -10 -8 -10 -11 -2 -6 11 5
13 2 9 -14 -4 -13 -1 -22 5 -22 7 0 3 -7 -7 -15 -14 -11 -16 -15 -5 -15 10 -1
9 -3 -3 -11 -10 -5 -18 -18 -18 -27 0 -13 2 -14 9 -3 6 9 11 10 15 2 4 -6 4
-11 -1 -12 -4 0 -15 -2 -24 -4 -14 -2 -15 5 -3 79 8 44 14 84 14 88 0 3 8 9
18 11 9 3 17 5 18 6 0 0 1 -6 1 -14z m43 -3 c0 -5 -7 -9 -15 -9 -8 0 -12 4 -9
9 3 4 9 8 15 8 5 0 9 -4 9 -8z m-88 -201 c-5 -3 -12 -15 -15 -26 -3 -13 -5 -9
-6 12 -1 26 2 31 15 26 9 -3 11 -9 6 -12z m-1708 -299 c3 -5 -1 -9 -9 -9 -8 0
-15 4 -15 9 0 4 4 8 9 8 6 0 12 -4 15 -8z m-174 -91 c0 -12 -20 -36 -20 -24 0
6 -3 19 -6 27 -5 12 -2 15 10 10 9 -3 16 -9 16 -13z m1196 -23 c2 -14 -1 -16
-16 -8 -28 15 -32 27 -8 26 12 -1 22 -9 24 -18z m59 8 c21 -14 25 -16 53 -17
14 0 14 -2 -3 -8 -13 -5 -28 -3 -42 7 -13 8 -30 12 -38 8 -15 -5 -21 5 -8 17
9 10 16 9 38 -7z m-269 -108 c4 -7 3 -8 -4 -4 -7 4 -12 3 -12 -3 0 -6 -8 -7
-17 -4 -17 7 -15 8 24 22 1 1 5 -4 9 -11z m-76 -9 c0 -5 6 -7 13 -3 6 4 9 4 5
-1 -4 -4 -2 -15 4 -24 10 -12 7 -12 -8 2 -11 9 -24 14 -27 10 -4 -3 -7 1 -7
10 0 10 5 17 10 17 6 0 10 -5 10 -11z m65 -149 c3 -5 1 -10 -4 -10 -6 0 -11 5
-11 10 0 6 2 10 4 10 3 0 8 -4 11 -10z m40 0 c3 -6 -1 -7 -9 -4 -18 7 -21 14
-7 14 6 0 13 -4 16 -10z m-19 -29 c0 -16 -3 -18 -20 -9 -20 11 -20 11 -1 19
11 4 20 8 20 8 1 1 1 -8 1 -18z m88 -53 c-3 -4 -11 -5 -19 -1 -21 7 -19 12 4
10 11 0 18 -5 15 -9z"/>
<path d="M6648 4577 c-37 -34 -53 -91 -53 -187 0 -71 4 -91 24 -122 38 -62 74
-49 112 39 29 66 22 216 -11 263 -26 36 -39 37 -72 7z"/>
<path d="M4145 6834 c-22 -19 -31 -31 -20 -26 19 10 73 62 64 62 -2 0 -22 -16
-44 -36z"/>
<path d="M6075 6830 c-3 -6 1 -7 9 -4 18 7 21 14 7 14 -6 0 -13 -4 -16 -10z"/>
<path d="M6013 6810 c-34 -14 -28 -21 7 -9 17 6 30 13 30 15 0 6 -12 4 -37 -6z"/>
<path d="M5945 6785 c-25 -12 -26 -14 -5 -9 14 4 29 10 35 15 12 12 5 11 -30
-6z"/>
<path d="M3985 6713 c-38 -30 -121 -93 -183 -140 -62 -47 -110 -88 -107 -91 3
-3 15 4 28 15 12 12 47 39 77 62 30 22 66 49 80 60 14 11 41 32 62 48 20 15
48 36 62 47 14 10 34 24 43 31 10 8 16 15 13 18 -3 2 -36 -20 -75 -50z"/>
<path d="M5555 6630 c-3 -6 1 -7 9 -4 18 7 21 14 7 14 -6 0 -13 -4 -16 -10z"/>
<path d="M3650 6453 c-14 -9 -48 -36 -77 -61 -28 -24 -55 -44 -60 -45 -4 -1
-7 -5 -5 -9 2 -8 -15 -12 -33 -8 -5 1 -7 -2 -3 -6 8 -8 -32 -41 -44 -36 -5 1
-7 -2 -5 -7 1 -5 -32 -36 -75 -69 -42 -34 -79 -66 -83 -72 -7 -11 165 116 175
130 3 3 37 31 75 62 39 31 83 68 98 81 16 14 38 32 50 41 12 8 20 15 17 15 -3
1 -17 -7 -30 -16z"/>
<path d="M5968 6423 c5 -21 7 -23 10 -9 2 10 0 22 -6 28 -6 6 -7 0 -4 -19z"/>
<path d="M7097 6264 c-4 -4 -30 -9 -59 -11 -29 -2 -60 -6 -68 -10 -8 -3 -24
-8 -35 -10 -53 -9 -146 -46 -154 -61 -12 -21 -3 -400 10 -463 8 -36 16 -48 32
-52 12 -3 98 -21 191 -41 92 -20 172 -39 177 -42 12 -7 11 53 0 130 -6 33 -15
97 -21 141 -7 44 -20 123 -30 175 -10 52 -21 128 -24 169 -6 76 -8 86 -19 75z"/>
<path d="M5582 6201 c-8 -4 -5 -11 8 -19 16 -10 20 -10 20 2 0 19 -13 27 -28
17z"/>
<path d="M3220 6111 c-13 -11 -28 -17 -32 -15 -3 2 -9 0 -12 -5 -15 -23 14
-18 45 9 38 33 38 40 -1 11z"/>
<path d="M5357 6070 c3 -11 9 -22 13 -25 5 -3 6 4 3 15 -3 11 -9 22 -13 25 -5
3 -6 -4 -3 -15z"/>
<path d="M3140 6045 c-13 -14 -30 -23 -38 -20 -7 2 -11 1 -8 -4 6 -9 -40 -52
-58 -55 -6 -1 -12 -5 -13 -9 -2 -10 -38 -42 -108 -99 -69 -56 -107 -90 -125
-113 -8 -11 27 16 79 60 139 119 252 214 280 236 13 11 22 21 19 24 -2 3 -15
-6 -28 -20z"/>
<path d="M5296 6002 c-3 -5 1 -9 9 -9 8 0 12 4 9 9 -3 4 -7 8 -9 8 -2 0 -6 -4
-9 -8z"/>
<path d="M5150 5910 c-9 -6 -10 -10 -3 -10 6 0 15 5 18 10 8 12 4 12 -15 0z"/>
<path d="M4917 5747 c-3 -8 1 -14 9 -14 16 0 19 13 5 21 -5 3 -11 0 -14 -7z"/>
<path d="M2734 5694 c-16 -15 -63 -59 -104 -99 -41 -39 -83 -75 -93 -78 -10
-4 -16 -11 -13 -16 7 -10 -18 -33 -27 -26 -4 3 -5 2 -2 -2 8 -10 -16 -33 -35
-33 -22 0 -50 -30 -29 -30 8 0 -3 -16 -23 -35 -21 -19 -35 -35 -32 -35 4 0 -4
-9 -17 -20 -13 -10 -22 -19 -19 -20 3 0 101 95 218 210 194 192 252 252 176
184z"/>
<path d="M4589 5533 c-13 -17 -13 -17 4 -4 16 13 20 13 29 0 8 -12 9 -12 6 0
-6 22 -23 24 -39 4z"/>
<path d="M4376 5388 c3 -5 10 -6 15 -3 13 9 11 12 -6 12 -8 0 -12 -4 -9 -9z"/>
<path d="M4360 5350 c0 -5 5 -10 11 -10 5 0 7 5 4 10 -3 6 -8 10 -11 10 -2 0
-4 -4 -4 -10z"/>
<path d="M4290 5330 c0 -5 5 -10 11 -10 5 0 7 5 4 10 -3 6 -8 10 -11 10 -2 0
-4 -4 -4 -10z"/>
<path d="M2273 5223 c-21 -25 -56 -67 -78 -91 -22 -25 -35 -43 -29 -41 6 2 37
36 70 74 77 92 88 105 81 105 -3 0 -23 -21 -44 -47z"/>
<path d="M3343 5030 c0 -36 2 -50 4 -32 2 17 2 47 0 65 -2 17 -4 3 -4 -33z"/>
<path d="M3333 4945 c-3 -9 -3 -18 -1 -21 3 -3 8 4 11 16 6 23 -1 27 -10 5z"/>
<path d="M3777 4846 c-16 -12 -16 -14 -2 -20 9 -3 13 -2 10 4 -3 6 -1 10 5 10
7 0 10 -6 7 -12 -2 -7 -11 -12 -20 -12 -9 1 -17 -9 -20 -23 -4 -20 -1 -23 16
-17 20 6 20 6 4 -10 -9 -10 -17 -30 -17 -46 0 -17 -7 -34 -17 -40 -14 -9 -14
-10 -2 -7 9 3 16 -1 16 -9 0 -9 -8 -14 -21 -12 -15 2 -20 -2 -18 -14 2 -11 -5
-18 -20 -20 -15 -2 -22 -9 -22 -21 2 -15 -14 -22 -38 -18 -5 0 -8 -4 -8 -10 0
-6 -7 -17 -15 -25 -8 -9 -15 -11 -15 -5 0 5 -9 9 -20 8 -11 -1 -20 -5 -20 -10
0 -4 -8 -7 -17 -5 -13 2 -17 -3 -15 -17 2 -15 1 -17 -6 -6 -10 14 -32 7 -32
-10 0 -6 5 -7 12 -3 7 4 8 3 4 -5 -4 -6 -12 -9 -17 -6 -5 4 -9 1 -9 -6 0 -8
-5 -7 -17 2 -15 12 -16 12 -11 -8 5 -17 2 -20 -11 -15 -14 5 -14 4 -1 -14 8
-10 10 -16 6 -12 -5 4 -15 3 -23 -3 -7 -6 -13 -8 -13 -4 0 4 -8 1 -17 -6 -14
-12 -16 -12 -8 0 6 11 4 13 -9 8 -10 -4 -20 -7 -24 -7 -3 0 2 -6 13 -13 14
-11 15 -16 5 -22 -9 -6 -11 -4 -5 5 6 10 4 12 -8 7 -9 -3 -18 -1 -21 6 -4 7
-4 2 -2 -10 3 -15 0 -20 -10 -16 -8 3 -11 10 -7 17 3 6 1 6 -8 -1 -7 -7 -23
-13 -36 -13 -18 0 -23 -6 -23 -25 0 -22 -2 -24 -26 -15 -32 12 -34 12 -34 0 0
-5 9 -10 19 -10 11 0 23 -5 27 -12 4 -7 3 -8 -4 -4 -7 4 -12 2 -12 -4 0 -8 -6
-8 -21 0 -15 9 -24 8 -35 -1 -12 -10 -13 -9 -8 7 5 17 4 17 -8 3 -9 -11 -20
-14 -34 -9 -18 7 -20 5 -16 -19 4 -28 3 -29 -48 -33 -11 -1 -20 -8 -20 -15 0
-7 -7 -13 -15 -13 -8 0 -15 -5 -15 -11 0 -5 4 -8 8 -5 4 2 9 -4 9 -15 1 -10
-2 -19 -8 -19 -5 0 -8 3 -7 8 0 4 -2 15 -7 25 -6 14 -10 15 -21 6 -8 -6 -14
-19 -14 -28 0 -13 2 -13 9 -2 6 9 11 10 15 2 4 -6 2 -11 -4 -11 -7 0 -9 -7 -6
-16 6 -15 4 -15 -11 -3 -15 12 -16 12 -10 -3 6 -18 -24 -35 -43 -23 -5 3 -7 0
-4 -9 3 -9 12 -12 21 -9 11 5 14 3 8 -6 -4 -7 -18 -11 -31 -8 -14 2 -27 0 -31
-6 -3 -5 -1 -7 5 -3 6 3 13 2 17 -4 3 -5 -1 -10 -10 -10 -9 0 -14 -4 -10 -9 3
-5 0 -13 -6 -17 -7 -4 -9 -3 -6 3 4 6 -2 13 -13 16 -13 3 -20 0 -20 -8 0 -8
-9 -13 -19 -12 -11 0 -19 5 -18 10 1 5 -3 11 -9 13 -7 3 -10 -13 -10 -43 0
-27 -3 -81 -8 -121 l-9 -73 29 7 c48 11 152 52 269 105 61 28 175 75 255 106
80 30 172 65 205 78 33 13 112 43 175 65 63 23 121 49 129 58 11 14 12 65 7
272 -7 252 -13 330 -25 330 -3 0 -14 -7 -24 -14z m30 -113 c-2 -16 -4 -5 -4
22 0 28 2 40 4 28 2 -13 2 -35 0 -50z m-52 -103 c3 -5 -1 -10 -10 -10 -9 0
-13 5 -10 10 3 6 8 10 10 10 2 0 7 -4 10 -10z m52 -52 c-3 -8 -6 -5 -6 6 -1
11 2 17 5 13 3 -3 4 -12 1 -19z m-132 -28 c3 -5 1 -10 -4 -10 -6 0 -11 5 -11
10 0 6 2 10 4 10 3 0 8 -4 11 -10z m-60 -40 c3 -5 1 -10 -4 -10 -6 0 -11 5
-11 10 0 6 2 10 4 10 3 0 8 -4 11 -10z m-338 -160 c-2 -11 -6 -22 -9 -26 -4
-3 -5 2 -3 13 2 10 4 21 4 26 1 4 3 7 6 7 3 0 4 -9 2 -20z m-192 -110 c-3 -5
-12 -10 -18 -10 -7 0 -6 4 3 10 19 12 23 12 15 0z m-235 -202 c0 -18 -2 -20
-9 -8 -6 8 -7 18 -5 22 9 14 14 9 14 -14z m-49 -56 c-10 -19 -11 -24 -11 -49
0 -9 -3 -14 -6 -10 -9 9 7 88 17 81 5 -3 5 -12 0 -22z"/>
<path d="M3714 4814 c-18 -14 -18 -14 6 -3 31 14 36 19 24 19 -6 0 -19 -7 -30
-16z"/>
<path d="M3593 4767 c-40 -16 -69 -35 -66 -40 3 -5 8 -5 12 0 3 5 36 21 74 37
37 16 67 30 67 32 0 7 -15 2 -87 -29z"/>
<path d="M7310 4696 c0 -33 5 -77 10 -96 19 -65 27 -69 141 -76 57 -3 128 -2
157 3 l53 8 -24 50 c-14 28 -33 72 -43 98 -26 66 -56 78 -191 76 l-103 -1 0
-62z"/>
<path d="M7717 4735 c-6 -43 40 -168 72 -192 12 -9 113 -12 424 -13 l408 0 -4
90 c-2 50 -8 95 -13 99 -9 9 -480 30 -751 34 -125 2 -132 1 -136 -18z"/>
<path d="M3420 4695 c-30 -13 -50 -24 -44 -25 6 0 36 11 65 24 30 14 50 25 44
25 -5 0 -35 -11 -65 -24z"/>
<path d="M3340 4660 c-9 -6 -10 -10 -3 -10 6 0 15 5 18 10 8 12 4 12 -15 0z"/>
<path d="M3283 4640 c-34 -14 -28 -21 7 -9 17 6 30 13 30 15 0 6 -12 4 -37 -6z"/>
<path d="M3635 4600 c-3 -5 -1 -10 4 -10 6 0 11 5 11 10 0 6 -2 10 -4 10 -3 0
-8 -4 -11 -10z"/>
<path d="M1473 4522 c-58 -71 -141 -183 -167 -226 l-18 -31 21 25 c12 14 42
54 68 90 26 36 50 67 53 70 12 10 101 130 96 130 -2 0 -26 -26 -53 -58z"/>
<path d="M3110 4570 c0 -5 7 -7 15 -4 8 4 15 8 15 10 0 2 -7 4 -15 4 -8 0 -15
-4 -15 -10z"/>
<path d="M3060 4550 c-8 -5 -10 -10 -5 -10 6 0 17 5 25 10 8 5 11 10 5 10 -5
0 -17 -5 -25 -10z"/>
<path d="M2890 4480 c-9 -6 -10 -10 -3 -10 6 0 15 5 18 10 8 12 4 12 -15 0z"/>
<path d="M2833 4448 c-18 -8 -23 -20 -23 -47 0 -20 -3 -47 -6 -61 -4 -20 -3
-22 5 -10 6 8 11 34 11 56 0 32 5 45 23 57 26 18 22 20 -10 5z"/>
<path d="M2795 4235 c-4 -42 -5 -78 -3 -81 3 -2 8 30 12 72 4 42 5 78 2 81 -2
2 -7 -30 -11 -72z"/>
<path d="M1262 4233 c-30 -44 -37 -60 -16 -37 21 22 47 64 40 64 -3 0 -13 -12
-24 -27z"/>
<path d="M2931 4154 c0 -11 3 -14 6 -6 3 7 2 16 -1 19 -3 4 -6 -2 -5 -13z"/>
<path d="M1184 4115 c-9 -19 -20 -32 -25 -29 -5 3 -6 -1 -4 -9 3 -7 -5 -24
-17 -38 -13 -14 -23 -27 -24 -29 0 -3 -13 -27 -28 -53 -16 -26 -26 -50 -24
-52 4 -5 90 131 127 200 9 16 21 33 26 37 6 5 6 8 -2 8 -7 0 -20 -16 -29 -35z"/>
<path d="M2782 4120 c0 -14 2 -19 5 -12 2 6 2 18 0 25 -3 6 -5 1 -5 -13z"/>
<path d="M1246 3833 c-6 -14 -5 -15 5 -6 7 7 10 15 7 18 -3 3 -9 -2 -12 -12z"/>
<path d="M1230 3795 c0 -8 2 -15 4 -15 2 0 6 7 10 15 3 8 1 15 -4 15 -6 0 -10
-7 -10 -15z"/>
<path d="M1161 3504 c0 -11 3 -14 6 -6 3 7 2 16 -1 19 -3 4 -6 -2 -5 -13z"/>
<path d="M1154 3345 c0 -49 1 -71 3 -48 2 23 2 64 0 90 -2 26 -3 8 -3 -42z"/>
<path d="M592 3355 c0 -16 2 -22 5 -12 2 9 2 23 0 30 -3 6 -5 -1 -5 -18z"/>
<path d="M593 3255 c0 -33 2 -45 4 -27 2 18 2 45 0 60 -2 15 -4 0 -4 -33z"/>
<path d="M1161 3194 c0 -11 3 -14 6 -6 3 7 2 16 -1 19 -3 4 -6 -2 -5 -13z"/>
<path d="M602 3170 c0 -14 2 -19 5 -12 2 6 2 18 0 25 -3 6 -5 1 -5 -13z"/>
<path d="M1170 3144 c0 -10 5 -26 10 -34 8 -11 9 -7 4 15 -8 37 -14 45 -14 19z"/>
<path d="M612 3125 c0 -11 4 -31 8 -45 6 -20 8 -21 8 -5 0 11 -4 31 -8 45 -6
20 -8 21 -8 5z"/>
<path d="M1191 3082 c-1 -14 27 -72 35 -72 2 0 -2 12 -9 28 -8 15 -17 34 -20
42 -4 10 -6 11 -6 2z"/>
<path d="M1230 2991 c0 -5 5 -13 10 -16 6 -3 10 -2 10 4 0 5 -4 13 -10 16 -5
3 -10 2 -10 -4z"/>
<path d="M1752 2980 c0 -14 2 -19 5 -12 2 6 2 18 0 25 -3 6 -5 1 -5 -13z"/>
<path d="M1714 2882 c3 -5 0 -13 -6 -15 -8 -3 -6 -6 5 -6 19 -1 23 14 5 25 -6
4 -8 3 -4 -4z"/>
<path d="M1548 2803 c6 -2 18 -2 25 0 6 3 1 5 -13 5 -14 0 -19 -2 -12 -5z"/>
</g>
</svg>
