<svg id="Capa_2" data-name="Capa 2" xmlns="http://www.w3.org/2000/svg" viewBox="0 0 222.29 58.84"><defs><style>.cls-1,.cls-2{fill:#fff;}.cls-2{font-size:25.56px;font-family:Roboto-BlackItalic, Roboto;font-weight:800;font-style:italic;letter-spacing:0.03em;}.cls-3{letter-spacing:0.01em;}.cls-4{letter-spacing:0.02em;}.cls-5{letter-spacing:-0.01em;}</style></defs><path class="cls-1" d="M39.39,42.79l-1.64-2.44c-.18-.27-.37-.52-.54-.8a2.51,2.51,0,0,0-1.65-1.34,2.74,2.74,0,0,0-1.14.23c-.77.28-1.52.6-2.31.93,0-.16,0-.28-.06-.4C32,37.5,32,36,32,34.55c0-.35.08-.46.32-.46,1.65,0,3.3,0,5,0a1.69,1.69,0,0,1,1.28.71,5.25,5.25,0,0,1,1,2.16H40c1,0,2,.05,3,.11a1.56,1.56,0,0,1,1.54,1.46c.08.39.19.77.27,1.17s.18.39.39.34.45,0,.49-.4c0,0,0,0,0,0a6.31,6.31,0,0,0-.63-2.89,1.87,1.87,0,0,0-1.71-1.14c-.82,0-1.64,0-2.45-.06-.13,0-.28-.18-.38-.33-.42-.58-.81-1.21-1.25-1.77a2.73,2.73,0,0,0-2.21-.92c-1.47-.09-3-.22-4.43-.32a6.18,6.18,0,0,0-1.36,0,4.15,4.15,0,0,0-1,.46l-2.94,1.48-.07,0c0-1.43,0-2.86,0-4.29,0-.66,0-1.32,0-2a.46.46,0,0,1,.25-.49c1.71-.91,3.41-1.85,5.13-2.76s3.53-1.86,5.3-2.8c1.55-.82,3.09-1.67,4.64-2.49s3-1.57,4.53-2.36a11.73,11.73,0,0,1,1.24-.69,4,4,0,0,1,2.4.12c1.7.44,3.38,1,5.09,1.37,1.55.37,3.11.63,4.67.95a1.78,1.78,0,0,1,.69.2,1.5,1.5,0,0,1,.56.63,9.14,9.14,0,0,1,.44,1.34c.06.24.15.31.34.34,1.18.15,2.37.3,3.56.48a4.44,4.44,0,0,1,1.12.31c.66.27.86,1,1,1.77.17,1.08.38,2.15.54,3.24a6.51,6.51,0,0,1,.07,1.17c0,1.77-.08,3.53-.12,5.3,0,.29,0,.58-.06.9-.41,0-.27.36-.32.66.36,0,.38.29.34.72-.09.78-.09,1.59-.14,2.46l3-.29c-.13.61-.25,1.18-.38,1.74-.21.85-.43,1.7-.62,2.55a29.47,29.47,0,0,1-1.36,5c-.6,1.37-1.19,2.76-1.86,4.08a22,22,0,0,1-1.35,2c-.1.16-.18.34-.29.49-.5.77-1,1.55-1.51,2.3-.28.41-.59.78-.92,1.21l6.44,2v0H12.15v-.06l5.15-1.65c-.88-.28-1.74-.51-2.57-.82a17.64,17.64,0,0,1-2.57-1.11A26.34,26.34,0,0,1,9.64,54a2.06,2.06,0,0,1-.35-.42,8,8,0,0,1-1.62-3.16,10,10,0,0,1-.12-4.88,16.8,16.8,0,0,1,1-3,42,42,0,0,1,2.05-3.88c.68-1.12,1.46-2.13,2.2-3.19.55-.77,1.07-1.59,1.66-2.3,1.11-1.33,2.26-2.6,3.41-3.87.88-1,1.78-1.93,2.7-2.84.74-.73,1.51-1.39,2.27-2.08.36-.34.7-.73,1.07-1.06,1.23-1.11,2.45-2.22,3.7-3.28S30.14,18,31.46,17s2.79-2.05,4.2-3c1.12-.77,2.26-1.48,3.39-2.21a.87.87,0,0,1,.5-.15,1.68,1.68,0,0,1-.16.3l-2.54,2.18-1.7,1.46c-1.15,1-2.32,1.92-3.46,2.91-.57.49-1.1,1-1.64,1.57C29,21,28,22,27,23c-.71.71-1.38,1.47-2.08,2.19s-1.53,1.5-2.28,2.27A21.87,21.87,0,0,0,21,29.39c-.74,1-1.47,2-2.13,3s-1.35,2.29-2,3.48c-.39.75-.7,1.58-1.07,2.36a22.42,22.42,0,0,0-1.68,4.85,8.62,8.62,0,0,0,.14,4.51,5.45,5.45,0,0,0,2.42,3.08,7.23,7.23,0,0,0,4.21,1,6.06,6.06,0,0,0,2-.38c1.21-.41,2.39-.92,3.57-1.4,1.83-.75,3.65-1.49,5.46-2.25,1.53-.64,3-1.31,4.58-2,.8-.33,1.6-.62,2.35-.91l-1.94-.62a.48.48,0,0,0-.26,0c-2.9,1.16-5.79,2.33-8.69,3.48-1.76.7-3.53,1.36-5.3,2-.39.15-.77.33-1.21.51,0-.41,0-.77.07-1.12.06-.91.13-1.81.18-2.71A.42.42,0,0,1,22,46l5.16-2.18,6.4-2.65c.41-.17.83-.31,1.23-.5a1.19,1.19,0,0,1,1.32.28,8.71,8.71,0,0,1,2,2.12.23.23,0,0,0,.23.09c.35-.07.69-.16,1-.25Zm16.84-21,10.56,1.6c-.05-.53-.31-.55-.57-.58a27.23,27.23,0,0,1-3.22-.4,2.4,2.4,0,0,1-1.36-1.1,1.11,1.11,0,0,0-.79-.53c-1.1-.23-2.19-.5-3.29-.67a15.65,15.65,0,0,0-2.55-.2,22.23,22.23,0,0,0-2.3.29,11.16,11.16,0,0,0-1.16.16.54.54,0,0,0-.36.33A29.47,29.47,0,0,0,50.83,24c0,2.8,0,5.59,0,8.39v.48a3,3,0,0,1,.3,0,10.73,10.73,0,0,1,2,.16c1,.27,1.38.76,1.56,2.27s.33,2.9.49,4.33a14.19,14.19,0,0,0,4.07-.21c1.59-.2,3.17-.35,4.76-.52l3-.35a.29.29,0,0,0,.2-.09,1.23,1.23,0,0,0,.23-1.21h-.56a1.65,1.65,0,0,1,0-1.5c.08-.22.43-.26.66-.37l.14-.92c-.62,0-1.24-.1-1.86-.12-2-.07-4-.11-6-.19-1.1,0-1.1-.06-1.39-1.42-.08-.35-.17-.7-.23-1.05S58.07,31,58,30.64l.22,0,3.1.12c2,.09,4,.17,5.94.27.3,0,.55,0,.57-.47s0-1.07,0-1.59c-1.05-.08-2.09-.14-3.13-.23-1.67-.14-3.34-.28-5-.44-.75-.07-1.49-.2-2.24-.23-.46,0-.54-.41-.59-.83C56.67,25.42,56.46,23.62,56.23,21.75ZM51.74,44.2H44.87L42.35,56.3h2.71c.07,0,.18-.16.21-.27.26-1.1.5-2.21.76-3.31.17-.68.24-.73.8-.71l2.32.07c.33,0,.64,0,.77-.51.17-.7.39-1.38.61-2.15h-4l.68-2.59h4ZM51,56.28H58.1l.58-2.83H54.41l2-9.27c-.95,0-1.86,0-2.77,0-.08,0-.21.19-.24.32-.18.7-.33,1.4-.49,2.11-.36,1.64-.72,3.28-1.07,4.93-.17.8-.28,1.62-.44,2.42S51.11,55.5,51,56.28ZM18.83,30.85l0-.07c-.43.46-.88.9-1.28,1.4-.59.74-1.15,1.53-1.71,2.31-.75,1-1.52,2.07-2.21,3.17s-1.15,2.09-1.72,3.14c-.06.12-.11.25-.18.37a11.44,11.44,0,0,0-1.41,3.38c-.09.4-.18.81-.26,1.22a7.68,7.68,0,0,0,.06,4.48A17.59,17.59,0,0,0,11.58,53a3.37,3.37,0,0,0,1.09,1.07,13.54,13.54,0,0,0,4.53,1.81c.6.12,1.21.17,1.82.24a9.84,9.84,0,0,0-.95-.42,24.07,24.07,0,0,1-4.28-2.43,5.88,5.88,0,0,1-2.18-4,12.2,12.2,0,0,1,.09-4.66,17.28,17.28,0,0,1,1.11-3.53,27.77,27.77,0,0,1,2-4c.59-.92,1.11-1.92,1.66-2.87a2.8,2.8,0,0,1,.14-.25Zm32,7.5a2.61,2.61,0,0,0,.49,2,.74.74,0,0,0,1.21.09,3.64,3.64,0,0,0,.58-1.34,4.53,4.53,0,0,0-.41-3c-.2-.36-.85-.51-1.06-.18A3.58,3.58,0,0,0,50.82,38.35ZM49.2,36.13v-.37c0-1.76,0-3.51,0-5.27,0-2.64,0-5.29-.09-7.93,0-1.25-.13-2.5-.2-3.75a.5.5,0,0,0,0-.12l-.08,0v17L47.13,36v.14Z" transform="translate(-7.3 -4.15)"/><path class="cls-1" d="M54.76,20.75l-.67-2.95q-.36-1.64-.75-3.27c-.09-.36-.32-.22-.5-.14-.46.19-.92.45-1.39.62a24.86,24.86,0,0,1-4.27,1.56,13,13,0,0,1-3.28.36,14.87,14.87,0,0,1-2.1-.26,3.5,3.5,0,0,1-1.2-.61c-.9-.63-1.77-1.32-2.66-2s-1.7-1.19-2.59-1.82l1.5-.7s.1,0,.13,0c.44-.4.87-.2,1.31,0l4.33,1.85c.28.12.55.23.83.33a.41.41,0,0,0,.29,0l2.85-1.48,2-1L39.51,6.92l.58-.31c.47-.27,1-.54,1.43-.82A1.78,1.78,0,0,1,43,5.58c3.11.85,6.23,1.65,9.33,2.52a2.36,2.36,0,0,0,2.08-.21c1.46-.91,3-1.69,4.45-2.52a15.24,15.24,0,0,1,1.72-1,5.22,5.22,0,0,1,1.52-.27c.2,0,.41.17.61.27l0,.15c-.37.29-.74.58-1.12.85a.32.32,0,0,0-.11.5c.61-.31,1.22-.64,1.85-.93a2.82,2.82,0,0,1,2.51-.18c1,.48,1,.88.54,1.9a4.88,4.88,0,0,1-1.15,1.37,6.16,6.16,0,0,1-1.3,1c-1.44.84-2.91,1.63-4.37,2.43-.22.13-.45.24-.68.35a1,1,0,0,0-.54.64c-.33,1.06-.75,2.07-1,3.14-.33,1.25-.53,2.53-.8,3.8a.83.83,0,0,1-.25.46C55.81,20.19,55.3,20.45,54.76,20.75Z" transform="translate(-7.3 -4.15)"/><path class="cls-1" d="M23.2,45.05l.12-4.78L31,36.93c0,.48,0,.85.05,1.21,0,1.2.05,2.39.09,3.59a.42.42,0,0,1-.32.49q-2.34.81-4.66,1.66C25.21,44.25,24.23,44.65,23.2,45.05Z" transform="translate(-7.3 -4.15)"/><path class="cls-1" d="M56.23,25.83c.23,1.68.44,3.29.67,4.91.05.38.13.73.59.75.75,0,1.49.14,2.24.21l5,.39c1,.08,2.08.14,3.13.2,0,.48,0,1,0,1.44s-.27.43-.57.42l-5.94-.24-3.1-.11H58c0,.34.07.65.13.95s.15.63.23.94c.29,1.22.29,1.24,1.39,1.28,2,.07,4,.11,6,.17.62,0,1.24.07,1.86.11l-.14.83c-.23.1-.58.13-.66.33a1.35,1.35,0,0,0,0,1.35h.56a1,1,0,0,1-.23,1.08.29.29,0,0,1-.2.09l-3,.31c-1.59.16-3.17.29-4.76.47a16.25,16.25,0,0,1-4.07.19c-.16-1.29-.31-2.59-.49-3.89s-.52-1.8-1.56-2a11.68,11.68,0,0,0-2-.15h-.3V35.4c0-2.52,0-5,0-7.54a23.69,23.69,0,0,1,.36-3c0-.13.23-.28.36-.31.38-.08.77-.09,1.16-.14a22.15,22.15,0,0,1,2.3-.25,15.61,15.61,0,0,1,2.55.17c1.1.16,2.19.39,3.29.6a1.17,1.17,0,0,1,.79.48,2.39,2.39,0,0,0,1.36,1,29.36,29.36,0,0,0,3.22.36c.26,0,.52,0,.57.52Zm-.95,0c-.74.23-1.45.48-2.17.69a.5.5,0,0,0-.37.56c0,1.19,0,2.37,0,3.56a3,3,0,0,1,.48.12c.61.21,1.21.44,1.82.62s.7,0,.63-.66-.15-1.4-.2-2.11C55.4,27.71,55.34,26.8,55.28,25.82Zm10.9,14.09c0-.32.06-.53.09-.73.12-.91.11-.91-.69-.93l-4.7-.08c-.39,0-.78-.06-1.16-.07s-.36.16-.25.44.23.56.33.85a.69.69,0,0,0,.7.51ZM56.76,40h1.79a.23.23,0,0,0,.15-.07,1,1,0,0,0,.16-1c-.06-.37-.1-.9-.48-1a14.84,14.84,0,0,0-2,0Z" transform="translate(-7.3 -4.15)"/><path class="cls-1" d="M50.21,39.6A3,3,0,0,1,51,37.45c.21-.3.85-.17,1,.16a3.76,3.76,0,0,1,.42,2.69,3.43,3.43,0,0,1-.58,1.2.81.81,0,0,1-1.22-.08C50.23,40.75,50.21,40.68,50.21,39.6Zm1.82.45A8.48,8.48,0,0,0,51.58,39a.39.39,0,0,0-.67.08A2.48,2.48,0,0,0,51.06,41c.17.24.46.27.6,0A8,8,0,0,0,52,40.05Z" transform="translate(-7.3 -4.15)"/><path class="cls-1" d="M66.18,40.41c-1.91,0-3.8,0-5.68,0a.69.69,0,0,1-.7-.5c-.1-.29-.23-.57-.33-.86s0-.44.25-.43.77,0,1.16.06c1.56,0,3.13.07,4.7.09.8,0,.81,0,.69.92C66.24,39.89,66.22,40.09,66.18,40.41Z" transform="translate(-7.3 -4.15)"/><path class="cls-1" d="M56.76,40l-.4-2.05a14.84,14.84,0,0,1,2,0c.38.06.42.59.48,1a1,1,0,0,1-.16,1,.23.23,0,0,1-.15.07Z" transform="translate(-7.3 -4.15)"/><path class="cls-1" d="M52.64,41.2c-.15.36-.23.66-.37.92s-.44.23-.61,0a2.48,2.48,0,0,1-.15-1.91.39.39,0,0,1,.67-.08A8,8,0,0,1,52.64,41.2Z" transform="translate(-7.3 -4.15)"/><text x="-7.3" y="-4.15"/><text class="cls-2" transform="translate(90.86 24.47)">FRO<tspan class="cls-3" x="49.14" y="0">N</tspan><tspan class="cls-4" x="66.95" y="0">TIER</tspan><tspan class="cls-5"><tspan x="0" y="27.44">L</tspan><tspan class="cls-4" x="13.41" y="27.44">OGISTICS</tspan></tspan></text></svg>