<svg id="Capa_2" data-name="Capa 2" xmlns="http://www.w3.org/2000/svg" xmlns:xlink="http://www.w3.org/1999/xlink" viewBox="0 0 471.88 210.39"><defs><style>.cls-1{fill:#fff;}.cls-2{fill:url(#Degradado_sin_nombre_19);}.cls-3,.cls-4{fill:#0a7fc6;}.cls-4{font-size:47.5px;font-family:Roboto-BlackItalic, Roboto;font-weight:800;font-style:italic;}.cls-5{letter-spacing:-0.01em;}.cls-6{letter-spacing:-0.03em;}</style><linearGradient id="Degradado_sin_nombre_19" x1="18.15" y1="105.44" x2="207.54" y2="105.44" gradientUnits="userSpaceOnUse"><stop offset="0.02" stop-color="#06b3f7"/><stop offset="1" stop-color="#0569a0"/></linearGradient></defs><path class="cls-1" d="M67.9,144.76l-9.58,10.55c-.23.26-.4.56-.61.83-2.38,3.22-4.62,6.56-7.18,9.64-3.44,4.15-6,8.82-8.63,13.48a50.76,50.76,0,0,0-4.79,11.85,32.6,32.6,0,0,0-.37,15.66c1.2,5.52,3.93,10.3,9.41,13.39a117.05,117.05,0,0,0,18.45,8.17,35.57,35.57,0,0,1,4.11,1.4c-2.62-.26-5.27-.41-7.87-.8a68.56,68.56,0,0,1-19.53-6.09,13.79,13.79,0,0,1-4.72-3.58,57.67,57.67,0,0,1-6.44-9.34c-2.54-4.85-1.54-10-.24-15.06.35-1.37.73-2.74,1.12-4.1a34.57,34.57,0,0,1,6.1-11.33c.29-.39.5-.84.78-1.25,2.45-3.52,4.72-7.19,7.4-10.53,3-3.71,6.32-7.14,9.55-10.65,2.41-2.63,4.83-5.26,7.38-7.76,1.71-1.68,3.66-3.14,5.5-4.7Z" transform="translate(-18.15 -19.35)"/><path class="cls-2" d="M112.69,122.13l-4.85-5.6c-.52-.61-1.08-1.19-1.59-1.81a7.11,7.11,0,0,0-4.84-3.07,9.47,9.47,0,0,0-3.38.52c-2.24.63-4.45,1.38-6.8,2.12a7.64,7.64,0,0,1-.16-.91c-.06-3.38-.08-6.76-.21-10.14,0-.79.23-1,.93-1,4.86,0,9.72-.07,14.59,0a5.45,5.45,0,0,1,3.76,1.64,11.26,11.26,0,0,1,3.08,5h1.15c3,.08,6,.12,9,.24,2.22.1,3.93,1,4.53,3.35.23.9.57,1.78.8,2.68a.89.89,0,0,0,1.14.79c.61-.1,1.33,0,1.46-.91a.3.3,0,0,1,0-.1,12,12,0,0,0-1.85-6.64,5.74,5.74,0,0,0-5-2.6c-2.41-.09-4.82,0-7.23-.15a2,2,0,0,1-1.12-.74c-1.24-1.33-2.37-2.78-3.67-4-1.79-1.76-4.13-2-6.51-2.12-4.35-.22-8.7-.5-13-.73a21.61,21.61,0,0,0-4,0,13.58,13.58,0,0,0-3,1l-8.66,3.38a.89.89,0,0,1-.21,0c0-3.28,0-6.56,0-9.84,0-1.5.11-3,.11-4.52a1,1,0,0,1,.72-1.1c5-2.1,10.06-4.26,15.1-6.35,5.2-2.16,10.43-4.26,15.64-6.41,4.56-1.89,9.1-3.83,13.67-5.71s8.9-3.59,13.35-5.4a35.3,35.3,0,0,1,3.64-1.6c2.36-.64,4.74-.19,7.07.28,5,1,10,2.21,15,3.15,4.56.85,9.17,1.45,13.76,2.17a7,7,0,0,1,2.05.45,4.26,4.26,0,0,1,1.64,1.45A16.67,16.67,0,0,1,180,71.93a1,1,0,0,0,1,.77c3.5.34,7,.69,10.49,1.1a17.76,17.76,0,0,1,3.31.72c1.95.61,2.54,2.25,2.91,4,.51,2.48,1.12,4.94,1.61,7.42a12.73,12.73,0,0,1,.19,2.69c-.09,4-.22,8.11-.35,12.16,0,.67-.11,1.34-.17,2.07-1.2-.08-.81.82-1,1.51,1.05.11,1.13.67,1,1.64-.26,1.81-.27,3.65-.39,5.65l8.93-.66c-.4,1.39-.75,2.69-1.14,4-.6,2-1.25,3.9-1.83,5.85-1.16,3.88-2,7.88-4,11.45-1.76,3.16-3.51,6.33-5.47,9.36a49.1,49.1,0,0,1-4,4.71c-.31.36-.55.77-.85,1.12-1.48,1.77-2.94,3.54-4.46,5.27-.82.94-1.74,1.79-2.71,2.78l19,4.65v.1H32.42l0-.15,15.19-3.77c-2.6-.65-5.12-1.18-7.58-1.9A57.82,57.82,0,0,1,32.44,152,84.17,84.17,0,0,1,25,147.83a5.75,5.75,0,0,1-1-1,17.39,17.39,0,0,1-4.77-7.26,18.16,18.16,0,0,1-.36-11.19,31.24,31.24,0,0,1,2.85-6.77,83.71,83.71,0,0,1,6-8.89c2-2.57,4.3-4.89,6.48-7.31,1.61-1.78,3.13-3.66,4.88-5.29,3.27-3,6.65-6,10-8.86,2.61-2.23,5.25-4.43,8-6.53,2.16-1.67,4.45-3.17,6.66-4.77,1.09-.78,2.09-1.66,3.18-2.43,3.61-2.52,7.2-5.08,10.89-7.5s7.58-4.86,11.46-7.15c4.07-2.41,8.22-4.71,12.39-7,3.28-1.77,6.65-3.39,10-5.07a3.14,3.14,0,0,1,1.46-.35c-.16.23-.26.53-.47.68-2.48,1.68-5,3.33-7.48,5-1.67,1.11-3.32,2.25-5,3.35C96.81,61.82,93.37,64,90,66.27c-1.67,1.11-3.24,2.37-4.82,3.59-3,2.32-6,4.64-9,7-2.07,1.64-4,3.37-6.11,5-2.22,1.76-4.51,3.44-6.71,5.22a58.75,58.75,0,0,0-5,4.32,92.06,92.06,0,0,0-6.29,7c-2.06,2.55-4,5.25-5.81,8-1.17,1.73-2.06,3.64-3.16,5.41a44.31,44.31,0,0,0-5,11.14,15.72,15.72,0,0,0,.41,10.33c1.34,3.39,4,5.45,7.13,7.07,3.92,2,8.15,2.32,12.41,2.31a23.32,23.32,0,0,0,5.91-.86c3.54-.95,7-2.12,10.52-3.23q8-2.55,16.08-5.15c4.5-1.47,9-3,13.48-4.46,2.35-.76,4.72-1.43,6.91-2.09-1.75-.44-3.72-1-5.69-1.42a1.59,1.59,0,0,0-.77.11c-8.54,2.66-17.06,5.35-25.6,8-5.2,1.6-10.42,3.12-15.63,4.68-1.14.34-2.27.74-3.57,1.16.08-.95.14-1.76.21-2.58.18-2.07.39-4.13.53-6.21,0-.62.33-.82.86-1,5.08-1.65,10.14-3.34,15.21-5,6.28-2,12.56-4.06,18.85-6.09,1.2-.39,2.43-.71,3.62-1.15a4.26,4.26,0,0,1,3.9.66,23.3,23.3,0,0,1,5.8,4.86.86.86,0,0,0,.67.2c1-.16,2-.37,3.05-.57ZM162.3,73.91l31.12,3.66c-.14-1.22-.91-1.27-1.69-1.34-3.16-.28-6.32-.33-9.48-.92a7,7,0,0,1-4-2.51,3.52,3.52,0,0,0-2.34-1.23c-3.23-.52-6.45-1.12-9.7-1.52a57,57,0,0,0-7.5-.45c-2.27,0-4.53.43-6.79.66-1.13.11-2.28.15-3.39.35-.41.07-1,.46-1.08.78a54.6,54.6,0,0,0-1.06,7.7c-.15,6.41,0,12.81,0,19.22v1.1h.89a42.77,42.77,0,0,1,5.79.38c3.05.61,4.06,1.74,4.6,5.21.52,3.31,1,6.64,1.44,9.93,4.08.48,8-.12,12-.5,4.67-.45,9.34-.79,14-1.19,2.93-.25,5.87-.52,8.8-.79a1,1,0,0,0,.6-.23,2.35,2.35,0,0,0,.66-2.77H193.5c-.89-1.19-.43-2.42.09-3.44.24-.49,1.28-.58,1.94-.84l.41-2.11c-1.82-.09-3.64-.22-5.47-.27-5.9-.16-11.8-.25-17.71-.43-3.25-.1-3.25-.16-4.11-3.27-.22-.8-.5-1.59-.68-2.4s-.24-1.57-.36-2.41c.31,0,.47,0,.63,0l9.14.28q8.76.28,17.51.6c.88,0,1.61-.07,1.68-1.07.09-1.21,0-2.44,0-3.65-3.08-.17-6.16-.32-9.23-.52q-7.38-.48-14.75-1c-2.19-.16-4.39-.46-6.58-.54-1.38,0-1.59-.93-1.75-1.91C163.61,82.32,163,78.2,162.3,73.91Zm-13.22,51.45H128.84c-2.47,9.21-4.93,18.41-7.42,27.75,2.8,0,5.39,0,8,0,.21,0,.53-.35.61-.6.77-2.53,1.48-5.08,2.26-7.61.48-1.55.71-1.67,2.35-1.62l6.84.17c1,0,1.89.07,2.27-1.16.5-1.62,1.14-3.19,1.78-4.94H133.78l2-5.93h11.68C148,129.34,148.54,127.39,149.08,125.36Zm-2.35,27.7h21.09c.55-2.14,1.1-4.25,1.69-6.49H156.94l6-21.25c-2.8,0-5.48,0-8.16,0-.25,0-.61.42-.71.71-.52,1.61-1,3.22-1.44,4.84-1.06,3.77-2.13,7.54-3.15,11.32-.49,1.83-.84,3.7-1.3,5.54S147.22,151.27,146.73,153.06ZM52.12,94.76,52,94.6c-1.26,1.07-2.58,2.06-3.76,3.21-1.74,1.71-3.39,3.51-5,5.3-2.21,2.4-4.49,4.74-6.52,7.27-1.83,2.28-3.38,4.79-5.06,7.2-.19.27-.33.58-.53.84A23.41,23.41,0,0,0,27,126.16c-.27.93-.53,1.87-.77,2.8-.88,3.45-1.57,7,.17,10.29a39.42,39.42,0,0,0,4.39,6.37A9.36,9.36,0,0,0,34,148.07a47.25,47.25,0,0,0,13.34,4.16c1.78.26,3.58.37,5.37.54a23.09,23.09,0,0,0-2.8-1,80.38,80.38,0,0,1-12.6-5.58,13.07,13.07,0,0,1-6.43-9.14,22.43,22.43,0,0,1,.26-10.7,34.4,34.4,0,0,1,3.27-8.09,61.74,61.74,0,0,1,5.89-9.21c1.75-2.1,3.28-4.38,4.9-6.58.14-.18.26-.39.42-.56ZM146.36,112c0,2.77,0,2.94,1.44,4.65.77,1,2.82,1.16,3.57.2a7.82,7.82,0,0,0,1.71-3.07,8.47,8.47,0,0,0-1.21-6.86c-.6-.83-2.5-1.16-3.11-.41C147.43,108.11,146,109.75,146.36,112Zm-4.77-5.09V106c0-4,0-8-.07-12.06-.07-6.07-.11-12.13-.26-18.2-.07-2.87-.37-5.73-.57-8.59a1.29,1.29,0,0,0-.08-.28l-.22.13v39.06l-4.9.48,0,.31Z" transform="translate(-18.15 -19.35)"/><path class="cls-3" d="M158,61.66c-.68-2.61-1.31-5.06-2-7.51-.73-2.79-1.46-5.58-2.23-8.36-.24-.91-.93-.55-1.46-.36-1.37.51-2.7,1.15-4.1,1.61-4.17,1.37-8.18,3.29-12.58,4a44.94,44.94,0,0,1-9.67.9,47.28,47.28,0,0,1-6.18-.67,11.37,11.37,0,0,1-3.55-1.53c-2.65-1.62-5.21-3.38-7.84-5s-5-3-7.62-4.65l4.43-1.78c.13,0,.3,0,.39-.09,1.28-1,2.55-.5,3.84,0l12.77,4.72c.81.3,1.62.6,2.45.85a1.38,1.38,0,0,0,.83,0c2.81-1.24,5.6-2.51,8.4-3.77l5.86-2.6L113,26.4c.62-.28,1.17-.53,1.71-.79,1.41-.69,2.82-1.37,4.22-2.09a6,6,0,0,1,4.39-.55c9.15,2.18,18.34,4.23,27.49,6.45a7.93,7.93,0,0,0,6.14-.55c4.28-2.31,8.73-4.3,13.11-6.43a47.47,47.47,0,0,1,5-2.4,16.83,16.83,0,0,1,4.49-.69c.58,0,1.2.43,1.8.67l.07.4c-1.09.72-2.17,1.47-3.29,2.15-.57.35-.74.71-.33,1.29,1.81-.8,3.6-1.65,5.45-2.38,2.4-.94,4.87-1.53,7.41-.47,3,1.23,3,2.26,1.58,4.86a13.48,13.48,0,0,1-3.38,3.49,19.94,19.94,0,0,1-3.82,2.5c-4.27,2.13-8.59,4.15-12.89,6.2-.66.31-1.33.61-2,.9a2.59,2.59,0,0,0-1.61,1.62c-.94,2.69-2.19,5.29-3,8-1,3.17-1.56,6.45-2.36,9.67a1.93,1.93,0,0,1-.73,1.18C161.08,60.23,159.55,60.9,158,61.66Z" transform="translate(-18.15 -19.35)"/><path class="cls-3" d="M65,123.61c.12-4.1.24-8.08.36-12.19l22.74-8.51c.06,1.24.12,2.17.15,3.09.09,3,.16,6.1.27,9.15,0,.73-.23,1-.94,1.25q-6.89,2.07-13.74,4.25C70.91,121.58,68,122.59,65,123.61Z" transform="translate(-18.15 -19.35)"/><path class="cls-1" d="M162.3,74.6c.68,4.29,1.31,8.41,2,12.53.16,1,.37,1.86,1.75,1.91,2.19.07,4.39.37,6.58.53q7.38.53,14.75,1c3.07.2,6.15.35,9.23.52,0,1.21.07,2.44,0,3.66-.07,1-.8,1.1-1.68,1.07-5.84-.23-11.67-.42-17.51-.61-3-.1-6.09-.18-9.14-.27a5.62,5.62,0,0,0-.63,0c.12.85.2,1.64.36,2.41s.46,1.6.68,2.41c.86,3.11.86,3.16,4.11,3.26,5.91.18,11.81.28,17.71.43,1.83,0,3.65.18,5.47.28l-.41,2.11c-.66.26-1.7.35-1.94.83-.52,1-1,2.25-.09,3.45h1.64a2.36,2.36,0,0,1-.66,2.77,1,1,0,0,1-.6.22c-2.93.27-5.87.54-8.8.79-4.68.4-9.35.74-14,1.19-4,.39-7.91,1-12,.5-.48-3.29-.92-6.62-1.44-9.93-.54-3.47-1.55-4.6-4.6-5.2a41.21,41.21,0,0,0-5.79-.39h-.89V99c0-6.4-.11-12.81,0-19.21a54.74,54.74,0,0,1,1.06-7.71c.05-.32.67-.7,1.08-.77,1.11-.2,2.26-.24,3.39-.36,2.26-.23,4.52-.63,6.79-.66a55.32,55.32,0,0,1,7.5.46c3.25.39,6.47,1,9.7,1.52a3.55,3.55,0,0,1,2.34,1.22,7,7,0,0,0,4,2.52c3.16.58,6.32.64,9.48.91.78.07,1.55.12,1.69,1.34Zm-2.8,0c-2.17.61-4.27,1.23-6.4,1.76A1.31,1.31,0,0,0,152,77.77c0,3,0,6.06,0,9.09a10,10,0,0,1,1.44.3c1.78.53,3.55,1.12,5.35,1.59,1.63.42,2.06,0,1.84-1.68s-.43-3.58-.59-5.38C159.84,79.4,159.69,77.1,159.5,74.58Zm32.1,35.92.28-1.86c.35-2.31.32-2.32-2-2.35q-6.95-.09-13.87-.22c-1.14,0-2.28-.14-3.41-.16-.76,0-1.05.39-.75,1.1s.7,1.44,1,2.19a2,2,0,0,0,2.05,1.29C180.43,110.52,186,110.5,191.6,110.5Zm-27.73.22h5.27a.8.8,0,0,0,.44-.17c.86-.7.64-1.69.48-2.53s-.32-2.3-1.42-2.44a48.42,48.42,0,0,0-5.95-.07C163.1,107.34,163.49,109.07,163.87,110.72Z" transform="translate(-18.15 -19.35)"/><path class="cls-1" d="M149.08,126.05c-.54,2-1.07,4-1.61,6H135.79l-2,5.93H145.5c-.64,1.76-1.28,3.33-1.78,4.94-.38,1.24-1.3,1.19-2.27,1.16l-6.84-.17c-1.64,0-1.87.07-2.35,1.63-.78,2.52-1.49,5.07-2.26,7.6-.08.25-.4.6-.61.6-2.58,0-5.17,0-8,0,2.49-9.33,5-18.53,7.42-27.75Z" transform="translate(-18.15 -19.35)"/><path class="cls-1" d="M146.73,153.75c.49-1.79,1-3.53,1.43-5.28s.81-3.72,1.3-5.55c1-3.78,2.09-7.55,3.15-11.31.46-1.62.92-3.24,1.44-4.84.1-.3.46-.71.71-.72,2.68,0,5.36,0,8.16,0l-6,21.24h12.57c-.59,2.24-1.14,4.35-1.69,6.49Z" transform="translate(-18.15 -19.35)"/><path class="cls-1" d="M146.36,112.65c-.36-2.2,1.07-3.84,2.4-5.49.61-.76,2.51-.43,3.11.41a8.46,8.46,0,0,1,1.21,6.86,7.71,7.71,0,0,1-1.71,3.06c-.75,1-2.8.75-3.57-.2C146.41,115.58,146.36,115.42,146.36,112.65Zm5.36,1.15a19.45,19.45,0,0,0-1.35-2.75,1.24,1.24,0,0,0-2,.2,5.54,5.54,0,0,0,.44,4.87,1.07,1.07,0,0,0,1.78,0A19.53,19.53,0,0,0,151.72,113.8Z" transform="translate(-18.15 -19.35)"/><path class="cls-1" d="M141.59,107.56h-6.08l0-.32,4.9-.48V67.7l.22-.13a1.72,1.72,0,0,1,.08.28c.2,2.87.5,5.73.57,8.6.15,6.06.19,12.13.26,18.19,0,4,0,8,.07,12.07Z" transform="translate(-18.15 -19.35)"/><path class="cls-3" d="M159.5,75.87c.19,2.52.34,4.82.55,7.11.16,1.79.35,3.59.59,5.38.22,1.64-.21,2.1-1.84,1.68-1.8-.48-3.57-1.06-5.35-1.59a11.21,11.21,0,0,0-1.44-.31c0-3,0-6,0-9.08a1.31,1.31,0,0,1,1.08-1.43C155.23,77.1,157.33,76.48,159.5,75.87Z" transform="translate(-18.15 -19.35)"/><path class="cls-3" d="M191.6,111.79c-5.61,0-11.17,0-16.73,0a2,2,0,0,1-2.05-1.28c-.29-.75-.68-1.45-1-2.19s0-1.12.75-1.1c1.13,0,2.27.14,3.41.16q6.93.12,13.87.22c2.34,0,2.37,0,2,2.35C191.8,110.46,191.72,111,191.6,111.79Z" transform="translate(-18.15 -19.35)"/><path class="cls-3" d="M163.87,110.72c-.38-1.65-.77-3.38-1.18-5.22a48.42,48.42,0,0,1,5.95.07c1.1.14,1.23,1.5,1.42,2.44s.38,1.83-.48,2.53a.8.8,0,0,1-.44.17Z" transform="translate(-18.15 -19.35)"/><path class="cls-3" d="M151.72,113.8a19.53,19.53,0,0,1-1.1,2.35,1.07,1.07,0,0,1-1.78,0,5.54,5.54,0,0,1-.44-4.87,1.24,1.24,0,0,1,2-.2A19.45,19.45,0,0,1,151.72,113.8Z" transform="translate(-18.15 -19.35)"/><text x="-18.15" y="-19.35"/><text class="cls-4" transform="translate(238.18 63.68)">FRO<tspan class="cls-5" x="87.77" y="0">N</tspan><tspan x="119.68" y="0">TIER</tspan><tspan class="cls-6" x="0" y="57">L</tspan><tspan x="23.73" y="57">OGISTICS</tspan></text></svg>